<svg width="459" height="432" xmlns="http://www.w3.org/2000/svg" xmlns:xlink="http://www.w3.org/1999/xlink" xml:space="preserve" overflow="hidden"><defs><clipPath id="clip0"><rect x="649" y="76" width="459" height="432"/></clipPath><clipPath id="clip1"><rect x="650" y="76" width="457" height="432"/></clipPath><clipPath id="clip2"><rect x="650" y="76" width="457" height="432"/></clipPath><clipPath id="clip3"><rect x="650" y="76" width="457" height="432"/></clipPath></defs><g clip-path="url(#clip0)" transform="translate(-649 -76)"><g clip-path="url(#clip1)"><g clip-path="url(#clip2)"><g clip-path="url(#clip3)"><path d="M27.1313 63.8582C35.4402 55.5493 43.7591 47.2303 52.0681 38.9214 50.8911 38.9214 49.714 38.9214 48.537 38.9214 56.7263 47.1106 64.9056 55.2899 73.0948 63.4792 75.369 65.7534 78.8901 62.2224 76.6259 59.9481 68.4366 51.7589 60.2573 43.5796 52.0681 35.3903 51.1205 34.4427 49.4946 34.4328 48.537 35.3903 40.2281 43.6993 31.9092 52.0182 23.6002 60.3272 21.3359 62.6014 24.857 66.1324 27.1313 63.8582L27.1313 63.8582Z" fill="#FFFFFF" fill-rule="nonzero" fill-opacity="1" transform="matrix(1.00013 0 0 1 629.05 42.0333)"/><path d="M26.7023 163.187C35.0113 154.878 43.3302 146.559 51.6392 138.25 50.4621 138.25 49.2851 138.25 48.1081 138.25 56.4171 146.559 64.736 154.878 73.0449 163.187 75.3192 165.461 78.8402 161.93 76.576 159.655 68.267 151.347 59.9481 143.028 51.6392 134.719 50.6916 133.771 49.0657 133.761 48.1081 134.719 39.7992 143.028 31.4802 151.347 23.1713 159.655 20.8971 161.93 24.4281 165.461 26.7023 163.187L26.7023 163.187Z" fill="#FFFFFF" fill-rule="nonzero" fill-opacity="1" transform="matrix(1.00013 0 0 1 629.05 42.0333)"/><path d="M26.7023 264.221C35.0113 255.912 43.3302 247.593 51.6392 239.284 50.4621 239.284 49.2851 239.284 48.1081 239.284 56.4171 247.593 64.736 255.912 73.0449 264.221 75.3192 266.495 78.8402 262.964 76.576 260.69 68.267 252.381 59.9481 244.062 51.6392 235.753 50.6916 234.805 49.0657 234.795 48.1081 235.753 39.7992 244.062 31.4802 252.381 23.1713 260.69 20.8971 262.964 24.4281 266.495 26.7023 264.221L26.7023 264.221Z" fill="#FFFFFF" fill-rule="nonzero" fill-opacity="1" transform="matrix(1.00013 0 0 1 629.05 42.0333)"/><path d="M26.7023 363.938C35.0113 355.629 43.3302 347.31 51.6392 339.001 50.4621 339.001 49.2851 339.001 48.1081 339.001 56.4171 347.31 64.736 355.629 73.0449 363.938 75.3192 366.212 78.8402 362.681 76.576 360.407 68.267 352.098 59.9481 343.779 51.6392 335.47 50.6916 334.522 49.0657 334.512 48.1081 335.47 39.7992 343.779 31.4802 352.098 23.1713 360.407 20.8971 362.691 24.4281 366.212 26.7023 363.938L26.7023 363.938Z" fill="#FFFFFF" fill-rule="nonzero" fill-opacity="1" transform="matrix(1.00013 0 0 1 629.05 42.0333)"/><path d="M26.7023 463.715C35.0113 455.406 43.3302 447.087 51.6392 438.778 50.4621 438.778 49.2851 438.778 48.1081 438.778 56.4171 447.087 64.736 455.406 73.0449 463.715 75.3192 465.989 78.8402 462.458 76.576 460.184 68.267 451.875 59.9481 443.556 51.6392 435.247 50.6916 434.3 49.0657 434.29 48.1081 435.247 39.7992 443.556 31.4802 451.875 23.1713 460.184 20.8971 462.458 24.4281 465.989 26.7023 463.715L26.7023 463.715Z" fill="#FFFFFF" fill-rule="nonzero" fill-opacity="1" transform="matrix(1.00013 0 0 1 629.05 42.0333)"/><path d="M126.499 63.4692C134.808 55.1602 143.127 46.8413 151.436 38.5324 150.259 38.5324 149.082 38.5324 147.905 38.5324 156.214 46.8413 164.533 55.1602 172.842 63.4692 175.116 65.7434 178.637 62.2124 176.373 59.9381 168.064 51.6292 159.745 43.3103 151.436 35.0013 150.489 34.0537 148.863 34.0437 147.905 35.0013 139.596 43.3103 131.277 51.6292 122.968 59.9381 120.704 62.2224 124.225 65.7434 126.499 63.4692L126.499 63.4692Z" fill="#FFFFFF" fill-rule="nonzero" fill-opacity="1" transform="matrix(1.00013 0 0 1 629.05 42.0333)"/><path d="M126.45 163.167C134.759 154.858 143.077 146.539 151.386 138.23 150.209 138.23 149.032 138.23 147.855 138.23 156.164 146.539 164.483 154.858 172.792 163.167 175.066 165.441 178.588 161.91 176.323 159.636 168.014 151.327 159.695 143.008 151.386 134.699 150.439 133.751 148.813 133.741 147.855 134.699 139.546 143.008 131.228 151.327 122.919 159.636 120.654 161.92 124.175 165.441 126.45 163.167L126.45 163.167Z" fill="#FFFFFF" fill-rule="nonzero" fill-opacity="1" transform="matrix(1.00013 0 0 1 629.05 42.0333)"/><path d="M126.45 264.201C134.759 255.892 143.077 247.573 151.386 239.264 150.209 239.264 149.032 239.264 147.855 239.264 156.164 247.573 164.483 255.892 172.792 264.201 175.066 266.475 178.588 262.944 176.323 260.67 168.014 252.361 159.695 244.042 151.386 235.733 150.439 234.785 148.813 234.775 147.855 235.733 139.546 244.042 131.228 252.361 122.919 260.67 120.654 262.944 124.175 266.475 126.45 264.201L126.45 264.201Z" fill="#FFFFFF" fill-rule="nonzero" fill-opacity="1" transform="matrix(1.00013 0 0 1 629.05 42.0333)"/><path d="M126.45 363.928C134.759 355.619 143.077 347.3 151.386 338.991 150.209 338.991 149.032 338.991 147.855 338.991 156.164 347.3 164.483 355.619 172.792 363.928 175.066 366.202 178.588 362.671 176.323 360.397 168.014 352.088 159.695 343.769 151.386 335.46 150.439 334.512 148.813 334.503 147.855 335.46 139.546 343.769 131.228 352.088 122.919 360.397 120.654 362.671 124.175 366.202 126.45 363.928L126.45 363.928Z" fill="#FFFFFF" fill-rule="nonzero" fill-opacity="1" transform="matrix(1.00013 0 0 1 629.05 42.0333)"/><path d="M126.45 463.695C134.759 455.386 143.077 447.067 151.386 438.758 150.209 438.758 149.032 438.758 147.855 438.758 156.164 447.067 164.483 455.386 172.792 463.695 175.066 465.969 178.588 462.438 176.323 460.164 168.014 451.855 159.695 443.536 151.386 435.227 150.439 434.28 148.813 434.27 147.855 435.227 139.546 443.536 131.228 451.855 122.919 460.164 120.654 462.438 124.175 465.969 126.45 463.695L126.45 463.695Z" fill="#FFFFFF" fill-rule="nonzero" fill-opacity="1" transform="matrix(1.00013 0 0 1 629.05 42.0333)"/><path d="M226.187 63.4692C234.496 55.1602 242.815 46.8413 251.124 38.5324 249.947 38.5324 248.77 38.5324 247.593 38.5324 255.902 46.8413 264.221 55.1602 272.53 63.4692 274.804 65.7434 278.325 62.2124 276.061 59.9381 267.752 51.6292 259.433 43.3103 251.124 35.0013 250.176 34.0537 248.55 34.0437 247.593 35.0013 239.284 43.3103 230.965 51.6292 222.656 59.9381 220.382 62.2224 223.913 65.7434 226.187 63.4692L226.187 63.4692Z" fill="#FFFFFF" fill-rule="nonzero" fill-opacity="1" transform="matrix(1.00013 0 0 1 629.05 42.0333)"/><path d="M226.187 163.197C234.496 154.888 242.815 146.569 251.124 138.26 249.947 138.26 248.77 138.26 247.593 138.26 255.902 146.569 264.221 154.888 272.53 163.197 274.804 165.471 278.325 161.94 276.061 159.665 267.752 151.357 259.433 143.038 251.124 134.729 250.176 133.781 248.55 133.771 247.593 134.729 239.284 143.038 230.965 151.357 222.656 159.665 220.382 161.95 223.913 165.471 226.187 163.197L226.187 163.197Z" fill="#FFFFFF" fill-rule="nonzero" fill-opacity="1" transform="matrix(1.00013 0 0 1 629.05 42.0333)"/><path d="M226.187 264.231C234.496 255.922 242.815 247.603 251.124 239.294 249.947 239.294 248.77 239.294 247.593 239.294 255.902 247.603 264.221 255.922 272.53 264.231 274.804 266.505 278.325 262.974 276.061 260.699 267.752 252.391 259.433 244.072 251.124 235.763 250.176 234.815 248.55 234.805 247.593 235.763 239.284 244.072 230.965 252.391 222.656 260.699 220.382 262.974 223.913 266.505 226.187 264.231L226.187 264.231Z" fill="#FFFFFF" fill-rule="nonzero" fill-opacity="1" transform="matrix(1.00013 0 0 1 629.05 42.0333)"/><path d="M226.187 363.958C234.496 355.649 242.815 347.33 251.124 339.021 249.947 339.021 248.77 339.021 247.593 339.021 255.902 347.33 264.221 355.649 272.53 363.958 274.804 366.232 278.325 362.701 276.061 360.427 267.752 352.118 259.433 343.799 251.124 335.49 250.176 334.542 248.55 334.532 247.593 335.49 239.284 343.799 230.965 352.118 222.656 360.427 220.382 362.701 223.913 366.232 226.187 363.958L226.187 363.958Z" fill="#FFFFFF" fill-rule="nonzero" fill-opacity="1" transform="matrix(1.00013 0 0 1 629.05 42.0333)"/><path d="M226.187 463.725C234.496 455.416 242.815 447.097 251.124 438.788 249.947 438.788 248.77 438.788 247.593 438.788 255.902 447.097 264.221 455.416 272.53 463.725 274.804 465.999 278.325 462.468 276.061 460.194 267.752 451.885 259.433 443.566 251.124 435.257 250.176 434.31 248.55 434.3 247.593 435.257 239.284 443.566 230.965 451.885 222.656 460.194 220.382 462.468 223.913 465.999 226.187 463.725L226.187 463.725Z" fill="#FFFFFF" fill-rule="nonzero" fill-opacity="1" transform="matrix(1.00013 0 0 1 629.05 42.0333)"/><path d="M325.934 63.4692C334.243 55.1602 342.562 46.8413 350.871 38.5324 349.694 38.5324 348.517 38.5324 347.34 38.5324 355.649 46.8413 363.968 55.1602 372.277 63.4692 374.551 65.7434 378.072 62.2124 375.808 59.9381 367.499 51.6292 359.18 43.3103 350.871 35.0013 349.923 34.0537 348.298 34.0437 347.34 35.0013 339.031 43.3103 330.712 51.6292 322.403 59.9381 320.139 62.2224 323.66 65.7434 325.934 63.4692L325.934 63.4692Z" fill="#FFFFFF" fill-rule="nonzero" fill-opacity="1" transform="matrix(1.00013 0 0 1 629.05 42.0333)"/><path d="M325.934 163.187C334.243 154.878 342.562 146.559 350.871 138.25 349.694 138.25 348.517 138.25 347.34 138.25 355.649 146.559 363.968 154.878 372.277 163.187 374.551 165.461 378.072 161.93 375.808 159.655 367.499 151.347 359.18 143.028 350.871 134.719 349.923 133.771 348.298 133.761 347.34 134.719 339.031 143.028 330.712 151.347 322.403 159.655 320.139 161.93 323.66 165.461 325.934 163.187L325.934 163.187Z" fill="#FFFFFF" fill-rule="nonzero" fill-opacity="1" transform="matrix(1.00013 0 0 1 629.05 42.0333)"/><path d="M325.934 264.221C334.243 255.912 342.562 247.593 350.871 239.284 349.694 239.284 348.517 239.284 347.34 239.284 355.649 247.593 363.968 255.912 372.277 264.221 374.551 266.495 378.072 262.964 375.808 260.69 367.499 252.381 359.18 244.062 350.871 235.753 349.923 234.805 348.298 234.795 347.34 235.753 339.031 244.062 330.712 252.381 322.403 260.69 320.139 262.964 323.66 266.495 325.934 264.221L325.934 264.221Z" fill="#FFFFFF" fill-rule="nonzero" fill-opacity="1" transform="matrix(1.00013 0 0 1 629.05 42.0333)"/><path d="M325.934 363.938C334.243 355.629 342.562 347.31 350.871 339.001 349.694 339.001 348.517 339.001 347.34 339.001 355.649 347.31 363.968 355.629 372.277 363.938 374.551 366.212 378.072 362.681 375.808 360.407 367.499 352.098 359.18 343.779 350.871 335.47 349.923 334.522 348.298 334.512 347.34 335.47 339.031 343.779 330.712 352.098 322.403 360.407 320.139 362.691 323.66 366.212 325.934 363.938L325.934 363.938Z" fill="#FFFFFF" fill-rule="nonzero" fill-opacity="1" transform="matrix(1.00013 0 0 1 629.05 42.0333)"/><path d="M325.934 463.715C334.243 455.406 342.562 447.087 350.871 438.778 349.694 438.778 348.517 438.778 347.34 438.778 355.649 447.087 363.968 455.406 372.277 463.715 374.551 465.989 378.072 462.458 375.808 460.184 367.499 451.875 359.18 443.556 350.871 435.247 349.923 434.3 348.298 434.29 347.34 435.247 339.031 443.556 330.712 451.875 322.403 460.184 320.139 462.458 323.66 465.989 325.934 463.715L325.934 463.715Z" fill="#FFFFFF" fill-rule="nonzero" fill-opacity="1" transform="matrix(1.00013 0 0 1 629.05 42.0333)"/><path d="M425.691 63.4692C434 55.1602 442.319 46.8413 450.628 38.5324 449.451 38.5324 448.274 38.5324 447.097 38.5324 455.406 46.8413 463.725 55.1602 472.034 63.4692 474.308 65.7434 477.829 62.2124 475.565 59.9381 467.256 51.6292 458.937 43.3103 450.628 35.0013 449.681 34.0537 448.055 34.0437 447.097 35.0013 438.788 43.3103 430.469 51.6292 422.16 59.9381 419.896 62.2224 423.417 65.7434 425.691 63.4692L425.691 63.4692Z" fill="#FFFFFF" fill-rule="nonzero" fill-opacity="1" transform="matrix(1.00013 0 0 1 629.05 42.0333)"/><path d="M425.691 163.187C434 154.878 442.319 146.559 450.628 138.25 449.451 138.25 448.274 138.25 447.097 138.25 455.406 146.559 463.725 154.878 472.034 163.187 474.308 165.461 477.829 161.93 475.565 159.655 467.256 151.347 458.937 143.028 450.628 134.719 449.681 133.771 448.055 133.761 447.097 134.719 438.788 143.028 430.469 151.347 422.16 159.655 419.896 161.93 423.417 165.461 425.691 163.187L425.691 163.187Z" fill="#FFFFFF" fill-rule="nonzero" fill-opacity="1" transform="matrix(1.00013 0 0 1 629.05 42.0333)"/><path d="M425.691 264.221C434 255.912 442.319 247.593 450.628 239.284 449.451 239.284 448.274 239.284 447.097 239.284 455.406 247.593 463.725 255.912 472.034 264.221 474.308 266.495 477.829 262.964 475.565 260.69 467.256 252.381 458.937 244.062 450.628 235.753 449.681 234.805 448.055 234.795 447.097 235.753 438.788 244.062 430.469 252.381 422.16 260.69 419.896 262.964 423.417 266.495 425.691 264.221L425.691 264.221Z" fill="#FFFFFF" fill-rule="nonzero" fill-opacity="1" transform="matrix(1.00013 0 0 1 629.05 42.0333)"/><path d="M425.691 363.938C434 355.629 442.319 347.31 450.628 339.001 449.451 339.001 448.274 339.001 447.097 339.001 455.406 347.31 463.725 355.629 472.034 363.938 474.308 366.212 477.829 362.681 475.565 360.407 467.256 352.098 458.937 343.779 450.628 335.47 449.681 334.522 448.055 334.512 447.097 335.47 438.788 343.779 430.469 352.098 422.16 360.407 419.896 362.691 423.417 366.212 425.691 363.938L425.691 363.938Z" fill="#FFFFFF" fill-rule="nonzero" fill-opacity="1" transform="matrix(1.00013 0 0 1 629.05 42.0333)"/><path d="M425.691 463.715C434 455.406 442.319 447.087 450.628 438.778 449.451 438.778 448.274 438.778 447.097 438.778 455.406 447.087 463.725 455.406 472.034 463.715 474.308 465.989 477.829 462.458 475.565 460.184 467.256 451.875 458.937 443.556 450.628 435.247 449.681 434.3 448.055 434.29 447.097 435.247 438.788 443.556 430.469 451.875 422.16 460.184 419.896 462.458 423.417 465.989 425.691 463.715L425.691 463.715Z" fill="#FFFFFF" fill-rule="nonzero" fill-opacity="1" transform="matrix(1.00013 0 0 1 629.05 42.0333)"/></g></g></g></g></svg>