<svg width="421" height="768" xmlns="http://www.w3.org/2000/svg" xmlns:xlink="http://www.w3.org/1999/xlink" xml:space="preserve" overflow="hidden"><defs><clipPath id="clip0"><rect x="137" y="96" width="421" height="768"/></clipPath><clipPath id="clip1"><rect x="138" y="96" width="420" height="768"/></clipPath></defs><g clip-path="url(#clip0)" transform="translate(-137 -96)"><g clip-path="url(#clip1)"><path d="M15.7071 7.86361C15.7071 12.2066 12.1864 15.7272 7.84347 15.7272 3.50052 15.7272-0.0201257 12.2065-0.0201115 7.86356-0.0200973 3.52061 3.50057-3.9619e-05 7.84352-2.54153e-05 7.85022-2.53934e-05 7.85691-1.68207e-05 7.86361 3.02743e-07 12.1987 0.0110875 15.7071 3.5285 15.7071 7.86361ZM91.0449 0C86.702-0.0111073 83.1723 3.50053 83.1612 7.84347 83.1501 12.1864 86.6617 15.7161 91.0047 15.7272 95.3476 15.7383 98.8773 12.2266 98.8884 7.88369 98.8884 7.877 98.8884 7.8703 98.8884 7.86361 98.8884 3.5285 95.38 0.0110874 91.0449 1.72619e-07ZM174.206 0C169.863-4.46566e-15 166.342 3.52066 166.342 7.86361 166.342 12.2066 169.863 15.7272 174.206 15.7272 178.549 15.7272 182.07 12.2066 182.07 7.86361 182.07 3.52066 178.549 1.72619e-07 174.206 1.72619e-07ZM257.428 0C253.085-4.46566e-15 249.564 3.52066 249.564 7.86361 249.564 12.2066 253.085 15.7272 257.428 15.7272 261.771 15.7272 265.291 12.2066 265.291 7.86361 265.291 3.52066 261.771 1.72619e-07 257.428 1.72619e-07ZM340.609 0C336.266-4.46566e-15 332.745 3.52066 332.745 7.86361 332.745 12.2066 336.266 15.7272 340.609 15.7272 344.952 15.7272 348.472 12.2066 348.472 7.86361 348.473 3.52066 344.952-4.58845e-05 340.609-0.0001027 340.596-0.000102876 340.582-6.85846e-05 340.569 1.72615e-07ZM423.75 0C419.407-0.0111073 415.877 3.50053 415.866 7.84347 415.855 12.1864 419.367 15.7161 423.71 15.7272 428.053 15.7383 431.582 12.2266 431.593 7.88369 431.593 7.877 431.593 7.8703 431.593 7.86361 431.593 3.5285 428.085 0.0110874 423.75 1.72619e-07ZM506.931 0C502.588 0.0333219 499.095 3.58089 499.128 7.92371 499.161 12.2665 502.709 15.7601 507.052 15.7268 511.371 15.6936 514.855 12.1829 514.855 7.86361 514.855 3.52066 511.335-0.000103455 506.992-0.00023129 506.972-0.000231884 506.951-0.00015473 506.931 1.72614e-07ZM590.092 0C585.749 2.76871e-14 582.229 3.52066 582.229 7.86361 582.229 12.2066 585.749 15.7272 590.092 15.7272 594.435 15.7272 597.956 12.2066 597.956 7.86361 597.956 3.52066 594.435 1.72619e-07 590.092 1.72619e-07ZM673.274 0C668.931 2.76871e-14 665.41 3.52066 665.41 7.86361 665.41 12.2066 668.931 15.7272 673.274 15.7272 677.617 15.7272 681.137 12.2066 681.137 7.86361 681.137 3.52066 677.617 1.72619e-07 673.274 1.72619e-07ZM756.455 15.7071C760.798 15.7071 764.319 12.1864 764.319 7.84347 764.319 3.50052 760.798-0.0201257 756.455-0.0201115 752.112-0.0200973 748.591 3.50057 748.591 7.84352 748.591 7.85022 748.591 7.85691 748.591 7.86361 748.602 12.1987 752.12 15.7071 756.455 15.7071ZM7.86361 80.4461C3.52067 80.435-0.00897835 83.9467-0.0200856 88.2896-0.0311929 92.6325 3.48045 96.1622 7.82339 96.1733 12.1663 96.1844 15.696 92.6727 15.7071 88.3298 15.7071 88.3231 15.7071 88.3164 15.7071 88.3097 15.7071 83.9746 12.1987 80.4572 7.86361 80.4461ZM91.0449 80.4461C86.702 80.435 83.1723 83.9467 83.1612 88.2896 83.1501 92.6325 86.6617 96.1622 91.0047 96.1733 95.3476 96.1844 98.8773 92.6727 98.8884 88.3298 98.8884 88.3231 98.8884 88.3164 98.8884 88.3097 98.8884 83.9746 95.38 80.4572 91.0449 80.4461ZM174.206 80.4461C169.863 80.4461 166.342 83.9668 166.342 88.3097 166.342 92.6527 169.863 96.1733 174.206 96.1733 178.549 96.1733 182.07 92.6527 182.07 88.3097 182.07 83.9668 178.549 80.4461 174.206 80.4461ZM257.428 80.4461C253.085 80.4461 249.564 83.9668 249.564 88.3097 249.564 92.6527 253.085 96.1733 257.428 96.1733 261.771 96.1733 265.291 92.6527 265.291 88.3097 265.291 83.9668 261.771 80.4461 257.428 80.4461ZM340.609 80.4461C336.266 80.4461 332.745 83.9668 332.745 88.3097 332.745 92.6527 336.266 96.1733 340.609 96.1733 344.952 96.1733 348.472 92.6527 348.472 88.3097 348.473 83.9668 344.952 80.4461 340.609 80.446 340.596 80.446 340.582 80.4461 340.569 80.4461ZM423.79 80.4461C419.447 80.435 415.918 83.9467 415.906 88.2896 415.895 92.6325 419.407 96.1622 423.75 96.1733 428.093 96.1844 431.623 92.6727 431.634 88.3298 431.634 88.3231 431.634 88.3164 431.634 88.3097 431.634 83.9668 428.113 80.4461 423.77 80.4461 423.763 80.4461 423.757 80.4461 423.75 80.4461ZM506.971 80.4461C502.629 80.435 499.099 83.9467 499.088 88.2896 499.077 92.6325 502.588 96.1622 506.931 96.1733 511.274 96.1844 514.804 92.6727 514.815 88.3298 514.815 88.3231 514.815 88.3164 514.815 88.3097 514.815 83.9668 511.294 80.4461 506.951 80.4461 506.945 80.4461 506.938 80.4461 506.931 80.4461ZM590.133 80.4461C585.79 80.4461 582.269 83.9668 582.269 88.3097 582.269 92.6527 585.79 96.1733 590.133 96.1733 594.476 96.1733 597.996 92.6527 597.996 88.3097 597.996 83.9668 594.476 80.4461 590.133 80.446 590.119 80.446 590.106 80.4461 590.092 80.4461ZM673.314 80.4461C668.971 80.4461 665.45 83.9668 665.45 88.3097 665.45 92.6527 668.971 96.1733 673.314 96.1733 677.657 96.1733 681.178 92.6527 681.178 88.3097 681.178 83.9668 677.657 80.4461 673.314 80.446 673.301 80.446 673.287 80.4461 673.274 80.4461ZM756.495 80.4461C752.153 80.3795 748.579 83.8458 748.512 88.1882 748.445 92.5307 751.912 96.1049 756.254 96.1715 760.596 96.2381 764.171 92.7718 764.237 88.4294 764.238 88.4029 764.238 88.3764 764.238 88.35 764.26 84.0226 760.782 80.4903 756.455 80.4461ZM7.86361 160.993C3.52067 160.982-0.00879504 164.494-0.0196749 168.837-0.0305548 173.18 3.48127 176.709 7.82421 176.72 12.1434 176.731 15.6629 173.256 15.7071 168.937 15.7515 164.594 12.2671 161.038 7.92438 160.993 7.90412 160.993 7.88387 160.993 7.86361 160.993ZM91.0449 160.993C86.702 160.982 83.1723 164.493 83.1612 168.836 83.1501 173.179 86.6618 176.709 91.0047 176.72 95.3477 176.731 98.8773 173.219 98.8884 168.876 98.8884 168.863 98.8884 168.85 98.8884 168.836 98.8773 164.509 95.3722 161.004 91.0449 160.993ZM174.206 160.993C169.863 160.993 166.343 164.514 166.343 168.857 166.343 173.2 169.864 176.72 174.207 176.72 178.518 176.72 182.026 173.248 182.07 168.937 182.114 164.594 178.63 161.038 174.287 160.993 174.26 160.993 174.233 160.993 174.206 160.993ZM257.387 160.993C253.044 160.993 249.524 164.513 249.524 168.856 249.524 173.199 253.044 176.72 257.387 176.72 261.73 176.72 265.251 173.199 265.251 168.856 265.251 168.85 265.251 168.843 265.251 168.836 265.24 164.517 261.747 161.015 257.428 160.993ZM340.569 160.993C336.226 160.993 332.705 164.513 332.705 168.856 332.705 173.199 336.226 176.72 340.569 176.72 344.912 176.72 348.432 173.199 348.432 168.856 348.432 168.85 348.432 168.843 348.432 168.836 348.421 164.501 344.904 160.993 340.569 160.993ZM423.75 160.993C419.407 160.982 415.877 164.493 415.866 168.836 415.855 173.179 419.367 176.709 423.71 176.72 428.053 176.731 431.582 173.219 431.593 168.876 431.593 168.863 431.593 168.85 431.593 168.836 431.582 164.509 428.077 161.004 423.75 160.993ZM506.931 160.993C502.588 161.026 499.095 164.574 499.129 168.917 499.162 173.26 502.71 176.753 507.053 176.72 511.34 176.686 514.811 173.224 514.855 168.937 514.9 164.594 511.415 161.038 507.073 160.993 507.026 160.992 506.978 160.992 506.931 160.993ZM590.092 160.993C585.749 160.993 582.229 164.513 582.229 168.856 582.229 173.199 585.75 176.72 590.092 176.72 594.435 176.72 597.956 173.199 597.956 168.856 597.956 168.85 597.956 168.843 597.956 168.836 597.945 164.501 594.428 160.993 590.092 160.993ZM673.274 160.993C668.931 160.993 665.41 164.513 665.41 168.856 665.41 173.199 668.931 176.72 673.274 176.72 677.617 176.72 681.137 173.199 681.137 168.856 681.137 168.85 681.137 168.843 681.137 168.836 681.126 164.501 677.609 160.993 673.274 160.993ZM756.455 160.993C752.112 160.949 748.556 164.433 748.512 168.776 748.468 173.119 751.952 176.675 756.295 176.719 760.637 176.763 764.194 173.279 764.238 168.937 764.283 164.594 760.799 161.037 756.456 160.993 756.456 160.993 756.455 160.993 756.455 160.993ZM7.86361 241.439C3.52067 241.428-0.00879504 244.94-0.0196749 249.283-0.0305548 253.626 3.48127 257.155 7.82421 257.166 12.1434 257.177 15.6629 253.702 15.7071 249.383 15.7293 245.04 12.2267 241.501 7.88385 241.479 7.8771 241.479 7.87035 241.479 7.86361 241.479ZM91.0449 241.439C86.702 241.428 83.1723 244.939 83.1612 249.282 83.1501 253.625 86.6617 257.155 91.0047 257.166 95.3476 257.177 98.8773 253.666 98.8884 249.323 98.8884 249.316 98.8884 249.309 98.8884 249.303 98.8663 244.983 95.3643 241.49 91.0449 241.479ZM174.206 241.439C169.863 241.439 166.343 244.96 166.343 249.303 166.343 253.646 169.864 257.166 174.207 257.166 178.518 257.166 182.026 253.694 182.07 249.383 182.092 245.04 178.589 241.501 174.246 241.479 174.233 241.479 174.22 241.479 174.206 241.479ZM257.387 241.439C253.044 241.439 249.524 244.96 249.524 249.303 249.524 253.645 253.044 257.166 257.387 257.166 261.73 257.166 265.251 253.645 265.251 249.303 265.229 244.991 261.739 241.501 257.428 241.479ZM340.569 241.439C336.226 241.439 332.705 244.96 332.705 249.303 332.705 253.645 336.226 257.166 340.569 257.166 344.912 257.166 348.432 253.645 348.432 249.303 348.41 244.975 344.896 241.479 340.569 241.479ZM423.75 241.439C419.407 241.428 415.877 244.939 415.866 249.282 415.855 253.625 419.367 257.155 423.71 257.166 428.053 257.177 431.582 253.666 431.593 249.323 431.593 249.316 431.593 249.309 431.593 249.303 431.571 244.983 428.069 241.49 423.75 241.479ZM506.931 241.439C502.588 241.472 499.095 245.02 499.129 249.363 499.162 253.706 502.71 257.199 507.053 257.166 511.34 257.133 514.811 253.671 514.855 249.383 514.878 245.04 511.375 241.501 507.032 241.479 506.998 241.479 506.965 241.479 506.931 241.479ZM590.092 241.439C585.749 241.439 582.229 244.96 582.229 249.303 582.229 253.645 585.749 257.166 590.092 257.166 594.435 257.166 597.956 253.645 597.956 249.303 597.934 244.975 594.42 241.479 590.092 241.479ZM673.274 241.439C668.931 241.439 665.41 244.96 665.41 249.303 665.41 253.645 668.931 257.166 673.274 257.166 677.617 257.166 681.137 253.645 681.137 249.303 681.115 244.975 677.601 241.479 673.274 241.479ZM756.455 241.439C752.112 241.395 748.556 244.879 748.512 249.222 748.468 253.565 751.952 257.121 756.295 257.165 760.637 257.21 764.194 253.725 764.238 249.383 764.26 245.056 760.782 241.523 756.455 241.479ZM7.86361 321.986C3.52067 321.975-0.00896693 325.486-0.0200601 329.829-0.0311532 334.172 3.4805 337.702 7.82344 337.713 12.1664 337.724 15.696 334.212 15.7071 329.869 15.7071 329.856 15.7071 329.842 15.7071 329.829 15.6961 325.502 12.1909 321.997 7.86361 321.986ZM91.0449 321.986C86.702 321.975 83.1723 325.486 83.1612 329.829 83.1501 334.172 86.6618 337.702 91.0047 337.713 95.3477 337.724 98.8773 334.212 98.8884 329.869 98.8884 329.856 98.8884 329.842 98.8884 329.829 98.8773 325.502 95.3722 321.997 91.0449 321.986ZM174.206 321.986C169.863 321.986 166.342 325.506 166.342 329.849 166.343 334.192 169.863 337.713 174.206 337.713 178.549 337.713 182.07 334.192 182.07 329.849 182.07 329.842 182.07 329.836 182.07 329.829 182.059 325.494 178.541 321.986 174.206 321.986ZM257.387 321.986C253.044 321.986 249.524 325.506 249.524 329.849 249.524 334.192 253.044 337.713 257.387 337.713 261.73 337.713 265.251 334.192 265.251 329.849 265.251 329.842 265.251 329.836 265.251 329.829 265.24 325.51 261.747 322.008 257.428 321.986ZM340.569 321.986C336.226 321.986 332.705 325.506 332.705 329.849 332.705 334.192 336.226 337.713 340.569 337.713 344.912 337.713 348.432 334.192 348.432 329.849 348.432 329.842 348.432 329.836 348.432 329.829 348.421 325.494 344.904 321.986 340.569 321.986ZM423.75 321.986C419.407 321.975 415.877 325.486 415.866 329.829 415.855 334.172 419.367 337.702 423.71 337.713 428.053 337.724 431.582 334.212 431.593 329.869 431.593 329.856 431.593 329.842 431.593 329.829 431.582 325.502 428.077 321.997 423.75 321.986ZM506.931 321.986C502.588 322.019 499.095 325.567 499.128 329.909 499.162 334.252 502.709 337.746 507.052 337.712 511.379 337.679 514.866 334.156 514.855 329.829 514.844 325.486 511.315 321.974 506.972 321.985 506.958 321.985 506.945 321.985 506.931 321.986ZM590.092 321.986C585.749 321.986 582.229 325.506 582.229 329.849 582.229 334.192 585.75 337.713 590.092 337.713 594.435 337.713 597.956 334.192 597.956 329.849 597.956 329.842 597.956 329.836 597.956 329.829 597.945 325.494 594.428 321.986 590.092 321.986ZM673.274 321.986C668.931 321.986 665.41 325.506 665.41 329.849 665.41 334.192 668.931 337.713 673.274 337.713 677.617 337.713 681.137 334.192 681.137 329.849 681.137 329.842 681.137 329.836 681.137 329.829 681.126 325.494 677.609 321.986 673.274 321.986ZM756.455 321.986C752.112 321.941 748.556 325.426 748.511 329.768 748.467 334.111 751.951 337.668 756.294 337.712 760.637 337.756 764.193 334.272 764.238 329.929 764.238 329.896 764.238 329.862 764.238 329.829 764.227 325.525 760.759 322.03 756.455 321.986ZM7.86361 402.432C3.52067 402.421-0.00896693 405.932-0.0200601 410.275-0.0311532 414.618 3.4805 418.148 7.82344 418.159 12.1664 418.17 15.696 414.658 15.7071 410.315 15.7071 410.302 15.7071 410.289 15.7071 410.275 15.674 405.964 12.1753 402.483 7.86361 402.472ZM91.0449 402.432C86.702 402.421 83.1723 405.932 83.1612 410.275 83.1501 414.618 86.6617 418.148 91.0047 418.159 95.3476 418.17 98.8773 414.658 98.8884 410.315 98.8884 410.309 98.8884 410.302 98.8884 410.295 98.8663 405.976 95.3643 402.483 91.0449 402.472ZM174.206 402.432C169.863 402.432 166.342 405.952 166.342 410.295 166.343 414.638 169.863 418.159 174.206 418.159 178.549 418.159 182.07 414.638 182.07 410.295 182.07 410.289 182.07 410.282 182.07 410.275 182.037 405.956 178.526 402.472 174.206 402.472ZM257.387 402.432C253.044 402.432 249.524 405.952 249.524 410.295 249.524 414.638 253.044 418.159 257.387 418.159 261.73 418.159 265.251 414.638 265.251 410.295 265.229 405.984 261.739 402.494 257.428 402.472ZM340.569 402.432C336.226 402.432 332.705 405.952 332.705 410.295 332.705 414.638 336.226 418.159 340.569 418.159 344.912 418.159 348.432 414.638 348.432 410.295 348.41 405.968 344.896 402.472 340.569 402.472ZM423.75 402.432C419.407 402.421 415.877 405.932 415.866 410.275 415.855 414.618 419.367 418.148 423.71 418.159 428.053 418.17 431.582 414.658 431.593 410.315 431.593 410.309 431.593 410.302 431.593 410.295 431.571 405.976 428.069 402.483 423.75 402.472ZM506.931 402.432C502.588 402.465 499.095 406.013 499.128 410.355 499.162 414.698 502.709 418.192 507.052 418.158 511.379 418.125 514.866 414.602 514.855 410.275 514.822 405.932 511.275 402.439 506.932 402.472 506.932 402.472 506.931 402.472 506.931 402.472ZM590.092 402.432C585.749 402.432 582.229 405.952 582.229 410.295 582.229 414.638 585.749 418.159 590.092 418.159 594.435 418.159 597.956 414.638 597.956 410.295 597.934 405.968 594.42 402.472 590.092 402.472ZM673.274 402.432C668.931 402.432 665.41 405.952 665.41 410.295 665.41 414.638 668.931 418.159 673.274 418.159 677.617 418.159 681.137 414.638 681.137 410.295 681.115 405.968 677.601 402.472 673.274 402.472ZM756.455 402.432C752.112 402.387 748.556 405.872 748.511 410.215 748.467 414.557 751.951 418.114 756.294 418.158 760.637 418.203 764.193 414.718 764.238 410.375 764.238 410.342 764.238 410.309 764.238 410.275 764.206 405.987 760.743 402.516 756.455 402.472Z" fill="#FFFFFF" fill-rule="nonzero" fill-opacity="1" transform="matrix(6.14206e-17 1.00307 -1 6.12323e-17 557.059 96.6052)"/></g></g></svg>