<svg width="446" height="44" xmlns="http://www.w3.org/2000/svg" xmlns:xlink="http://www.w3.org/1999/xlink" xml:space="preserve" overflow="hidden"><defs><clipPath id="clip0"><rect x="692" y="716" width="446" height="44"/></clipPath></defs><g clip-path="url(#clip0)" transform="translate(-692 -716)"><path d="M165.178 37.9374 110.522 5.00473 55.8665 37.9374 0 4.34029 2.20765 0.66444 55.7915 32.9326 110.49 0 165.145 32.9326 219.865 0 274.521 32.9326 329.251 0 383.907 32.9326 437.491 0.66444 439.709 4.34029 383.95 37.9374 329.294 5.00473 274.639 37.9374 219.983 5.00473ZM329.251 57.967 383.907 90.8996 439.72 57.3026 437.544 53.5838 383.96 85.852 329.305 52.9194 274.649 85.852 219.994 52.9194 165.338 85.852 110.683 52.9194 56.0273 85.852 2.20765 53.5838 0 57.3026 55.7915 90.8996 110.447 57.967 165.103 90.8996 219.758 57.967 274.414 90.8996ZM329.251 110.929 383.907 143.862 439.72 110.265 437.501 106.589 383.918 138.857 329.262 105.925 274.607 138.857 219.951 105.925 165.295 138.857 110.64 105.925 55.9844 138.857 2.40056 106.589 0 110.265 55.7915 143.862 110.447 110.929 165.103 143.862 219.758 110.929 274.414 143.862Z" fill="#FFFFFF" fill-rule="nonzero" fill-opacity="1" transform="matrix(1.01354 0 0 1 692.169 716)"/></g></svg>